<?xml version="1.0" encoding="UTF-8"?>
<svg id="Livello_2" xmlns="http://www.w3.org/2000/svg" viewBox="0 0 1624.2 434.47">
  <defs>
    <style>
      .cls-1 {
        fill: #e4f600;
      }

      .cls-2 {
        fill: #1c1c1c;
      }
    </style>
  </defs>
  <g id="Livello_1-2" data-name="Livello_1">
    <path class="cls-2" d="M1162.61,232.87h58.2v147.6h67.65v50.4h-125.85v-198Z"/>
    <path class="cls-2" d="M1395.1,430.87v-17.25c-1,1.8-3.22,4.38-6.67,7.72-3.45,3.35-7.95,6.38-13.5,9.08s-12.03,4.05-19.42,4.05c-12.3,0-22.88-3.07-31.73-9.22-8.85-6.15-15.63-14.17-20.33-24.08-4.7-9.9-7.05-20.5-7.05-31.8s2.35-21.9,7.05-31.8c4.7-9.9,11.48-17.95,20.33-24.15,8.85-6.2,19.42-9.3,31.73-9.3,7,0,13.1.97,18.3,2.92,5.2,1.95,9.52,4.3,12.97,7.05,3.45,2.75,6.02,5.43,7.73,8.03v-14.4h58.8v123.15h-58.2ZM1354.3,369.37c0,3.4.85,6.6,2.55,9.6,1.7,3,4.05,5.4,7.05,7.2s6.5,2.7,10.5,2.7,7.5-.9,10.5-2.7,5.35-4.2,7.05-7.2c1.7-3,2.55-6.2,2.55-9.6s-.85-6.6-2.55-9.6c-1.7-3-4.05-5.42-7.05-7.28-3-1.85-6.5-2.78-10.5-2.78s-7.5.93-10.5,2.78c-3,1.85-5.35,4.28-7.05,7.28-1.7,3-2.55,6.2-2.55,9.6Z"/>
    <path class="cls-2" d="M1464.58,430.87v-206.4h59.82v97.65c1.12-2.6,3.48-5.27,7.1-8.03,3.61-2.75,8.26-5.1,13.96-7.05,5.7-1.95,12.11-2.92,19.23-2.92,12.51,0,23.22,3.1,32.12,9.3,8.9,6.2,15.69,14.25,20.37,24.15,4.68,9.9,7.02,20.5,7.02,31.8s-2.34,21.9-7.02,31.8c-4.68,9.9-11.47,17.92-20.37,24.08-8.9,6.15-19.61,9.22-32.12,9.22-5.39,0-10.71-.9-15.95-2.7-5.24-1.8-10-4.28-14.27-7.43-4.27-3.15-7.78-6.72-10.53-10.72v17.25h-59.36ZM1565.45,369.37c0-3.4-.87-6.6-2.59-9.6-1.73-3-4.15-5.42-7.25-7.28-3.1-1.85-6.69-2.78-10.76-2.78s-7.63.93-10.68,2.78c-3.05,1.85-5.44,4.28-7.17,7.28-1.73,3-2.59,6.2-2.59,9.6s.86,6.6,2.59,9.6c1.73,3,4.12,5.4,7.17,7.2s6.61,2.7,10.68,2.7,7.65-.9,10.76-2.7c3.1-1.8,5.52-4.2,7.25-7.2,1.73-3,2.59-6.2,2.59-9.6Z"/>
  </g>
  <g id="Lockup_Grid">
    <g>
      <path class="cls-1" d="M71.36,71.18c-1.53,0-2.81,0-4.09,0-20.71.11-41.42.3-62.12.28C1.42,71.45,0,72.22,0,76.41c0,16.47.05,32.97.05,49.64,0,3.92,1.08,6.86,3.94,9.68,41.21,40.67,82.29,81.45,123.53,122.08,1.74,1.71,4.71,3.1,7.11,3.1,31.19,0,62.39-.33,93.58-.45,2.85-.01,3.52-1.02,3.51-3.65-.08-21.24-.1-42.48.02-63.71.02-3.09-.86-3.96-4.01-3.93-41.42.35-82.83.58-124.25.78-17.25.08-32.25-16.16-31.98-33.33.42-27.75.18-55.5.2-83.26,0-.5-.15-1.01-.33-2.18Z"/>
      <path class="cls-1" d="M72.22.22c0,24.2,0,47.5,0,70.96,53.14,0,106.15,0,159.52,0,0-24.01,0-47.49,0-70.96-53.03,0-106.04,0-159.52,0Z"/>
    </g>
    <g>
      <path class="cls-2" d="M370.59,169.67c7.6,0,13.87-1.3,18.8-3.9,4.93-2.6,8.27-4.7,10-6.3l27.8,41.2c-2.13,1.73-5.8,3.97-11,6.7-5.2,2.73-11.7,5.1-19.5,7.1-7.8,2-16.7,3-26.7,3-18.8,0-35.33-3.57-49.6-10.7-14.27-7.13-25.37-17.23-33.3-30.3-7.93-13.07-11.9-28.4-11.9-46s3.97-33.07,11.9-46c7.93-12.93,19.03-22.97,33.3-30.1,14.27-7.13,30.8-10.7,49.6-10.7,9.87,0,18.7,1.03,26.5,3.1,7.8,2.07,14.37,4.4,19.7,7,5.33,2.6,9.07,4.83,11.2,6.7l-28.4,41.6c-.93-.93-2.63-2.27-5.1-4-2.47-1.73-5.63-3.27-9.5-4.6-3.87-1.33-8.47-2-13.8-2-6.53,0-12.63,1.67-18.3,5-5.67,3.33-10.23,7.93-13.7,13.8-3.47,5.87-5.2,12.6-5.2,20.2s1.73,14.37,5.2,20.3c3.47,5.93,8.03,10.57,13.7,13.9,5.67,3.33,11.77,5,18.3,5Z"/>
      <path class="cls-2" d="M503.59,217.47c-18,0-33.97-3.7-47.9-11.1-13.93-7.4-24.87-17.6-32.8-30.6-7.93-13-11.9-27.9-11.9-44.7s3.97-31.77,11.9-44.9c7.93-13.13,18.87-23.5,32.8-31.1,13.93-7.6,29.9-11.4,47.9-11.4s33.87,3.8,47.6,11.4c13.73,7.6,24.47,17.97,32.2,31.1,7.73,13.13,11.6,28.1,11.6,44.9s-3.87,31.7-11.6,44.7c-7.73,13-18.47,23.2-32.2,30.6-13.73,7.4-29.6,11.1-47.6,11.1ZM503.59,167.47c6.93,0,12.93-1.53,18-4.6,5.07-3.07,9-7.4,11.8-13,2.8-5.6,4.2-11.93,4.2-19s-1.4-13.6-4.2-19.2c-2.8-5.6-6.73-10-11.8-13.2-5.07-3.2-11.07-4.8-18-4.8s-12.97,1.6-18.1,4.8c-5.13,3.2-9.13,7.6-12,13.2-2.87,5.6-4.3,12-4.3,19.2s1.43,13.4,4.3,19c2.87,5.6,6.87,9.93,12,13,5.13,3.07,11.17,4.6,18.1,4.6Z"/>
      <path class="cls-2" d="M715.59,43.67c11.47,0,22.67,2.33,33.6,7,10.93,4.67,19.93,12.03,27,22.1,7.07,10.07,10.6,23.3,10.6,39.7v105h-61v-95c0-11.73-2.8-20.57-8.4-26.5-5.6-5.93-12.93-8.9-22-8.9-6,0-11.63,1.57-16.9,4.7-5.27,3.13-9.53,7.53-12.8,13.2-3.27,5.67-4.9,12.17-4.9,19.5v93h-60.8V43.67h60.8v29c1.6-4.4,4.97-8.83,10.1-13.3,5.13-4.47,11.6-8.2,19.4-11.2s16.23-4.5,25.3-4.5Z"/>
      <path class="cls-2" d="M909.18,43.67c11.47,0,22.67,2.33,33.6,7,10.93,4.67,19.93,12.03,27,22.1,7.07,10.07,10.6,23.3,10.6,39.7v105h-61v-95c0-11.73-2.8-20.57-8.4-26.5-5.6-5.93-12.93-8.9-22-8.9-6,0-11.63,1.57-16.9,4.7-5.27,3.13-9.53,7.53-12.8,13.2-3.27,5.67-4.9,12.17-4.9,19.5v93h-60.8V43.67h60.8v29c1.6-4.4,4.97-8.83,10.1-13.3,5.13-4.47,11.6-8.2,19.4-11.2s16.23-4.5,25.3-4.5Z"/>
      <path class="cls-2" d="M1042.98,143.47c.4,5.87,2.27,11.07,5.6,15.6,3.33,4.53,7.97,8.1,13.9,10.7,5.93,2.6,12.97,3.9,21.1,3.9s14.7-.8,20.9-2.4c6.2-1.6,11.6-3.6,16.2-6s8.17-4.87,10.7-7.4l23.6,37.6c-3.33,3.6-8.03,7.1-14.1,10.5-6.07,3.4-14.03,6.17-23.9,8.3-9.87,2.13-22.33,3.2-37.4,3.2-18.13,0-34.27-3.4-48.4-10.2-14.13-6.8-25.27-16.8-33.4-30-8.13-13.2-12.2-29.33-12.2-48.4,0-16,3.5-30.43,10.5-43.3,7-12.87,17.17-23.07,30.5-30.6,13.33-7.53,29.4-11.3,48.2-11.3s33.37,3.27,46.5,9.8c13.13,6.53,23.27,16.23,30.4,29.1,7.13,12.87,10.7,28.9,10.7,48.1,0,1.07-.03,3.2-.1,6.4-.07,3.2-.23,5.33-.5,6.4h-118.8ZM1105.18,111.67c-.13-4.27-1.27-8.5-3.4-12.7-2.13-4.2-5.33-7.67-9.6-10.4-4.27-2.73-9.73-4.1-16.4-4.1s-12.3,1.3-16.9,3.9c-4.6,2.6-8.1,5.97-10.5,10.1-2.4,4.13-3.73,8.53-4,13.2h60.8Z"/>
      <path class="cls-2" d="M1284.38,124.47l77.5,93h-67.4l-46.5-55.4-38.8,55.4h-62.8l69.6-88.2-69.6-85.6h68l37.4,47,45.6-47h61.6l-74.6,80.8Z"/>
      <path class="cls-2" d="M1464.58,217.47v-31.4c-1.2,2.67-4.23,6.53-9.1,11.6-4.87,5.07-11.3,9.63-19.3,13.7-8,4.07-17.33,6.1-28,6.1-16,0-30-3.9-42-11.7-12-7.8-21.33-18.27-28-31.4-6.67-13.13-10-27.7-10-43.7s3.33-30.57,10-43.7c6.67-13.13,16-23.63,28-31.5,12-7.87,26-11.8,42-11.8,10.27,0,19.27,1.63,27,4.9,7.73,3.27,14,7.13,18.8,11.6,4.8,4.47,8.13,8.57,10,12.3l-.2-28.8h60.4l.2,173.8h-59.8ZM1387.78,130.67c0,7.47,1.73,14.17,5.2,20.1,3.47,5.93,8.1,10.57,13.9,13.9,5.8,3.33,12.23,5,19.3,5s13.8-1.67,19.4-5c5.6-3.33,10.03-7.97,13.3-13.9,3.27-5.93,4.9-12.63,4.9-20.1s-1.63-14.17-4.9-20.1c-3.27-5.93-7.7-10.6-13.3-14-5.6-3.4-12.07-5.1-19.4-5.1s-13.5,1.7-19.3,5.1-10.43,8.07-13.9,14c-3.47,5.93-5.2,12.63-5.2,20.1Z"/>
      <path class="cls-2" d="M1523.98,21.73c0-3,.56-5.82,1.68-8.44,1.12-2.62,2.68-4.93,4.68-6.92,2-1.99,4.3-3.55,6.92-4.68,2.61-1.13,5.41-1.7,8.39-1.7s5.82.57,8.44,1.7c2.62,1.13,4.93,2.69,6.92,4.68,1.99,1.99,3.55,4.29,4.68,6.92,1.13,2.62,1.7,5.44,1.7,8.44s-.57,5.78-1.7,8.39c-1.13,2.61-2.69,4.92-4.68,6.92-1.99,2-4.29,3.56-6.92,4.68-2.62,1.12-5.44,1.68-8.44,1.68s-5.78-.56-8.39-1.68c-2.61-1.12-4.92-2.68-6.92-4.68-2-2-3.56-4.3-4.68-6.92-1.12-2.61-1.68-5.41-1.68-8.39ZM1529.54,21.73c0,2.2.42,4.28,1.25,6.23.84,1.96,1.99,3.67,3.47,5.14,1.48,1.47,3.19,2.63,5.14,3.47,1.95.85,4.03,1.27,6.25,1.27s4.31-.42,6.27-1.27c1.96-.85,3.68-2,5.17-3.47,1.49-1.47,2.65-3.18,3.49-5.14.84-1.96,1.25-4.03,1.25-6.23s-.42-4.31-1.25-6.27c-.84-1.96-2-3.67-3.49-5.16-1.49-1.48-3.22-2.64-5.17-3.49-1.96-.85-4.03-1.27-6.23-1.27s-4.31.42-6.27,1.27c-1.96.85-3.68,2.01-5.16,3.49-1.48,1.48-2.64,3.2-3.47,5.16-.84,1.96-1.25,4.05-1.25,6.27ZM1547.05,16.94c.66,0,1.32.11,2,.33.68.22,1.07.38,1.17.46l2.13-4.38c-.08-.06-.66-.36-1.71-.9-1.06-.54-2.61-.81-4.66-.81-1.88,0-3.62.46-5.22,1.36-1.6.91-2.88,2.14-3.85,3.68-.97,1.54-1.46,3.27-1.46,5.17s.49,3.52,1.46,5.03c.97,1.51,2.26,2.72,3.85,3.62,1.6.9,3.34,1.35,5.22,1.35,1.14,0,2.18-.12,3.11-.36.93-.24,1.68-.5,2.25-.78.57-.27.91-.43,1.02-.48l-2.19-4.41c-.15.13-.51.29-1.08.49-.57.2-1.24.3-2,.3-1.33,0-2.43-.47-3.3-1.41-.87-.94-1.3-2.09-1.3-3.44s.43-2.47,1.28-3.41c.86-.94,1.95-1.41,3.28-1.41Z"/>
    </g>
  </g>
</svg>